:SAMPLES-PER-SECOND 30
:FULLY-SPECIFIED
:DEGREES
133
root  40.2929 38.0658 -1.07518 159.259 -89.0607 -164.035
RightUpLeg  15.5621 -9.04621 0.473286
RightLeg  11.7571 6.22466 2.82676
RightFoot  -19.6386 -0.35085 -3.01483
RightToes  -1.16417e-010 0 -3.6325e-017
Spine  2.65124 2.31036 10.4274
Spine1  7.49566 4.6419 -8.51454
HEad  -17.3662 -2.92593 -2.9006
LeftShoulder1  -0.603944 5.09201 -31.8779
LeftArm  5.13137 16.4533 -40.7312
LeftForeArm  31.4404 -14.4196 -7.67621
LeftHand  -0.186461 9.49004 -3.6097
RightShoulder  -0.977707 -6.3079 28.3154
RightArm  25.4782 13.8414 51.8705
RightForeArm  8.61548 18.2729 5.55347
RightHand  -0.0962189 4.81851 -1.38937
LeftUpLeg  -17.4601 1.69535 -1.21686
LeftLeg  -2.28657 8.36137 -1.35824
LeftFoot  -0.194068 0.513258 -5.20604
LeftToes  3.13772e-010 -3.14513e-011 3.96022e-013
134
root  38.9628 37.8465 -1.04687 170.965 -88.4384 -175.683
RightUpLeg  17.615 -9.53609 -0.606122
RightLeg  12.2393 8.02817 3.0046
RightFoot  -20.7633 -0.302915 -1.96787
RightToes  -1.16417e-010 0 -3.6325e-017
Spine  2.34165 2.36365 9.20644
Spine1  7.62628 4.63785 -8.16941
HEad  -17.5434 -2.59666 -2.73384
LeftShoulder1  -0.638803 5.17616 -32.0462
LeftArm  5.26906 15.5408 -40.7946
LeftForeArm  31.4838 -14.6005 -7.58763
LeftHand  -0.157893 9.04237 -3.26548
RightShoulder  -0.969364 -6.26227 28.5791
RightArm  24.67 11.3044 51.8368
RightForeArm  10.4048 16.8845 6.06797
RightHand  -0.0686336 4.56218 -1.09033
LeftUpLeg  -18.5541 1.83347 -2.05554
LeftLeg  2.78554 10.9524 -1.00112
LeftFoot  2.77347 0.0656443 -0.960991
LeftToes  3.13772e-010 -3.14513e-011 3.96022e-013
135
root  37.5536 37.7231 -1.00635 -166.26 -87.028 161.563
RightUpLeg  19.7797 -9.97657 -2.88219
RightLeg  12.6205 10.5289 3.09915
RightFoot  -21.2211 -0.15695 -0.164733
RightToes  -1.16417e-010 0 -3.6325e-017
Spine  1.68932 2.7258 7.19337
Spine1  8.10388 5.03377 -8.11908
HEad  -18.1657 -2.88463 -2.38568
LeftShoulder1  -0.730364 5.40071 -32.338
LeftArm  6.61586 14.6476 -40.3463
LeftForeArm  30.3561 -15.146 -7.44848
LeftHand  -0.173456 9.27815 -3.4754
RightShoulder  -1.02786 -6.38268 29.1665
RightArm  22.764 8.82817 51.6911
RightForeArm  13.4497 14.0664 7.18601
RightHand  -0.0631384 4.4221 -1.03838
LeftUpLeg  -19.4488 2.20582 -3.61072
LeftLeg  7.17015 10.111 -0.0429875
LeftFoot  7.82996 -1.05187 6.01235
LeftToes  3.13772e-010 -3.14513e-011 3.96022e-013
136
root  36.0701 37.6007 -0.949965 -149.735 -85.4984 144.883
RightUpLeg  21.1763 -9.91991 -5.86113
RightLeg  15.0673 12.6943 3.62188
RightFoot  -21.4323 0.0821878 2.54104
RightToes  -1.16417e-010 0 -3.6325e-017
Spine  1.03277 2.82654 3.99539
Spine1  7.98204 4.84708 -7.26594
HEad  -17.4559 -1.80848 -2.39326
LeftShoulder1  -0.839594 5.65898 -32.7941
LeftArm  7.19374 13.8241 -39.449
LeftForeArm  29.5289 -15.1692 -7.53179
LeftHand  -0.147147 9.28511 -2.73108
RightShoulder  -1.03007 -6.33378 29.8471
RightArm  20.3275 6.06676 51.3968
RightForeArm  18.5174 10.4922 8.29187
RightHand  -0.0211377 3.45979 -0.514106
LeftUpLeg  -20.085 3.75661 -6.02888
LeftLeg  12.4712 8.52667 1.331
LeftFoot  9.68375 -1.71585 8.96102
LeftToes  3.13772e-010 -3.14513e-011 3.96022e-013
137
root  34.6542 37.5428 -0.909529 -133.409 -84.4948 128.222
RightUpLeg  21.1844 -8.68156 -8.27401
RightLeg  20.0619 12.8386 4.90388
RightFoot  -20.3295 0.389529 6.81079
RightToes  -1.16417e-010 0 -3.6325e-017
Spine  0.737931 2.633 0.371018
Spine1  7.83637 4.29938 -6.10231
HEad  -15.4147 0.125649 -3.04863
LeftShoulder1  -0.837237 5.63854 -33.0526
LeftArm  5.21697 11.7686 -38.9154
LeftForeArm  31.4662 -13.2589 -8.41828
LeftHand  -0.151661 9.47358 -2.67907
RightShoulder  -1.07777 -6.42367 30.3744
RightArm  16.5297 3.09888 51.3529
RightForeArm  24.9024 6.3346 8.48637
RightHand  0.100149 2.91849 1.16405
LeftUpLeg  -19.8971 4.90591 -8.73771
LeftLeg  17.1006 7.21756 2.67002
LeftFoot  6.69512 -1.61113 9.87055
LeftToes  3.13772e-010 -3.14513e-011 3.96022e-013
138
root  33.4365 37.5679 -0.807172 -128.703 -83.7864 123.214
RightUpLeg  18.6071 -6.62304 -9.4003
RightLeg  28.3607 12.3112 6.8925
RightFoot  -16.3892 0.448148 13.0363
RightToes  -1.16417e-010 0 -3.6325e-017
Spine  1.27766 2.50827 -1.15221
Spine1  7.48626 4.01071 -6.51548
HEad  -15.4619 -0.459109 -3.42072
LeftShoulder1  -0.744162 5.41146 -32.8453
LeftArm  2.11303 9.37227 -39.2289
LeftForeArm  34.6825 -10.9931 -9.0808
LeftHand  -0.1886 9.86691 -3.33309
RightShoulder  -1.08578 -6.45015 30.3168
RightArm  14.7447 -0.587226 51.3712
RightForeArm  28.6811 4.0604 7.91674
RightHand  0.0850118 1.28347 1.3537
LeftUpLeg  -18.9235 4.9952 -9.95442
LeftLeg  19.8322 7.49922 3.33499
LeftFoot  3.74152 -1.43715 10.6445
LeftToes  3.13772e-010 -3.14513e-011 3.96022e-013
